<svg width="41" height="24" viewBox="0 0 41 24" fill="none" xmlns="http://www.w3.org/2000/svg">
<path fill-rule="evenodd" clip-rule="evenodd" d="M29.8704 24C31.1216 21.6862 31.8334 19.0277 31.8334 16.2C31.8334 7.25299 24.7073 0 15.9167 0C7.12616 0 0 7.25299 0 16.2C0 19.0277 0.711819 21.6862 1.96303 24H29.8704Z" fill="#F28040"/>
<path d="M23.7127 9.11925C25.1249 9.11925 26.3638 9.40018 27.4293 9.96205C28.5077 10.5239 29.3358 11.3275 29.9135 12.3728C30.5041 13.4051 30.7994 14.6072 30.7994 15.9792C30.7994 17.3512 30.5041 18.5534 29.9135 19.5856C29.3358 20.6048 28.5077 21.3954 27.4293 21.9572C26.3638 22.5191 25.1249 22.8 23.7127 22.8H19.0139V9.11925H23.7127ZM23.6164 20.4676C25.0286 20.4676 26.1198 20.0756 26.8901 19.2916C27.6604 18.5076 28.0456 17.4035 28.0456 15.9792C28.0456 14.555 27.6604 13.4443 26.8901 12.6472C26.1198 11.8371 25.0286 11.432 23.6164 11.432H21.7099V20.4676H23.6164Z" fill="white"/>
<path d="M41.0001 9.11925V18.7232C41.0001 20.056 40.6213 21.0948 39.8639 21.8396C39.1064 22.5714 38.0922 22.9372 36.8212 22.9372C35.5374 22.9372 34.4975 22.5583 33.7015 21.8004C32.9184 21.0426 32.5269 19.9842 32.5269 18.6252H35.2229C35.2357 19.2132 35.3705 19.6706 35.6273 19.9972C35.8969 20.3239 36.282 20.4872 36.7827 20.4872C37.2706 20.4872 37.6429 20.3304 37.8996 20.0168C38.1564 19.7032 38.2848 19.272 38.2848 18.7232V9.11925H41.0001Z" fill="#F28040"/>
<path d="M17.6852 15.2C17.6852 19.3974 14.342 22.8 10.2181 22.8C6.09411 22.8 2.75098 19.3974 2.75098 15.2C2.75098 11.0026 6.09411 7.60001 10.2181 7.60001C14.342 7.60001 17.6852 11.0026 17.6852 15.2Z" fill="white"/>
<path d="M18.4713 16.9999C18.4713 20.4241 15.744 23.1999 12.3797 23.1999C9.01538 23.1999 6.28809 20.4241 6.28809 16.9999C6.28809 13.5758 9.01538 10.7999 12.3797 10.7999C15.744 10.7999 18.4713 13.5758 18.4713 16.9999Z" fill="#F28040"/>
<path d="M17.6853 17.5999C17.6853 20.2509 15.5738 22.3999 12.9692 22.3999C10.3646 22.3999 8.25317 20.2509 8.25317 17.5999C8.25317 14.949 10.3646 12.7999 12.9692 12.7999C15.5738 12.7999 17.6853 14.949 17.6853 17.5999Z" fill="white"/>
</svg>
